<mxfile host="Electron" agent="Mozilla/5.0 (X11; Linux x86_64) AppleWebKit/537.36 (KHTML, like Gecko) draw.io/24.7.17 Chrome/128.0.6613.36 Electron/32.0.1 Safari/537.36" version="24.7.17">
  <diagram name="Page-1" id="kuyQ8Ffgp0a_dQGPY02l">
    <mxGraphModel dx="1478" dy="943" grid="1" gridSize="10" guides="1" tooltips="1" connect="1" arrows="1" fold="1" page="1" pageScale="1" pageWidth="850" pageHeight="1100" math="0" shadow="0">
      <root>
        <mxCell id="0" />
        <mxCell id="1" parent="0" />
        <mxCell id="Ns06nyAxxZCVgoRq7tHa-1" value="User" style="shape=umlActor;verticalLabelPosition=bottom;verticalAlign=top;html=1;outlineConnect=0;fillColor=#ffe6cc;strokeColor=#d79b00;" parent="1" vertex="1">
          <mxGeometry x="50" y="170" width="30" height="60" as="geometry" />
        </mxCell>
        <mxCell id="Ns06nyAxxZCVgoRq7tHa-2" value="User" style="shape=umlActor;verticalLabelPosition=bottom;verticalAlign=top;html=1;outlineConnect=0;fillColor=#ffe6cc;strokeColor=#d79b00;" parent="1" vertex="1">
          <mxGeometry x="140" y="60" width="30" height="60" as="geometry" />
        </mxCell>
        <mxCell id="Ns06nyAxxZCVgoRq7tHa-3" value="User" style="shape=umlActor;verticalLabelPosition=bottom;verticalAlign=top;html=1;outlineConnect=0;fillColor=#ffe6cc;strokeColor=#d79b00;" parent="1" vertex="1">
          <mxGeometry x="240" y="170" width="30" height="60" as="geometry" />
        </mxCell>
        <mxCell id="Ns06nyAxxZCVgoRq7tHa-8" value="" style="endArrow=classic;startArrow=classic;html=1;rounded=0;" parent="1" source="Ns06nyAxxZCVgoRq7tHa-1" target="Ns06nyAxxZCVgoRq7tHa-2" edge="1">
          <mxGeometry width="50" height="50" relative="1" as="geometry">
            <mxPoint x="280" y="190" as="sourcePoint" />
            <mxPoint x="330" y="140" as="targetPoint" />
          </mxGeometry>
        </mxCell>
        <mxCell id="Ns06nyAxxZCVgoRq7tHa-9" value="" style="endArrow=classic;startArrow=classic;html=1;rounded=0;" parent="1" source="Ns06nyAxxZCVgoRq7tHa-3" target="Ns06nyAxxZCVgoRq7tHa-2" edge="1">
          <mxGeometry width="50" height="50" relative="1" as="geometry">
            <mxPoint x="90" y="192" as="sourcePoint" />
            <mxPoint x="150" y="118" as="targetPoint" />
          </mxGeometry>
        </mxCell>
        <mxCell id="Ns06nyAxxZCVgoRq7tHa-10" value="User" style="shape=umlActor;verticalLabelPosition=bottom;verticalAlign=top;html=1;outlineConnect=0;fillColor=#ffe6cc;strokeColor=#d79b00;" parent="1" vertex="1">
          <mxGeometry x="140" y="280" width="30" height="60" as="geometry" />
        </mxCell>
        <mxCell id="Ns06nyAxxZCVgoRq7tHa-11" value="" style="endArrow=classic;startArrow=classic;html=1;rounded=0;" parent="1" source="Ns06nyAxxZCVgoRq7tHa-1" target="Ns06nyAxxZCVgoRq7tHa-10" edge="1">
          <mxGeometry width="50" height="50" relative="1" as="geometry">
            <mxPoint x="90" y="192" as="sourcePoint" />
            <mxPoint x="150" y="118" as="targetPoint" />
          </mxGeometry>
        </mxCell>
        <mxCell id="Ns06nyAxxZCVgoRq7tHa-12" value="" style="endArrow=classic;startArrow=classic;html=1;rounded=0;" parent="1" source="Ns06nyAxxZCVgoRq7tHa-10" target="Ns06nyAxxZCVgoRq7tHa-3" edge="1">
          <mxGeometry width="50" height="50" relative="1" as="geometry">
            <mxPoint x="100" y="202" as="sourcePoint" />
            <mxPoint x="160" y="128" as="targetPoint" />
          </mxGeometry>
        </mxCell>
        <mxCell id="Ns06nyAxxZCVgoRq7tHa-15" value="" style="shape=mxgraph.signs.safety.store_right_up_1;html=1;pointerEvents=1;fillColor=#000000;strokeColor=none;verticalLabelPosition=bottom;verticalAlign=top;align=center;sketch=0;" parent="1" vertex="1">
          <mxGeometry x="340" y="180" width="36" height="30" as="geometry" />
        </mxCell>
        <mxCell id="Ns06nyAxxZCVgoRq7tHa-16" value="Toxicity" style="shape=mxgraph.signs.safety.biohazard;html=1;pointerEvents=1;fillColor=#f8cecc;strokeColor=#b85450;verticalLabelPosition=bottom;verticalAlign=top;align=center;sketch=0;" parent="1" vertex="1">
          <mxGeometry x="280" y="165" width="58" height="50" as="geometry" />
        </mxCell>
        <mxCell id="Ns06nyAxxZCVgoRq7tHa-18" value="Moderator" style="shape=umlActor;verticalLabelPosition=bottom;verticalAlign=top;html=1;outlineConnect=0;fillColor=#dae8fc;strokeColor=#6c8ebf;" parent="1" vertex="1">
          <mxGeometry x="520" y="170" width="30" height="60" as="geometry" />
        </mxCell>
        <mxCell id="Ns06nyAxxZCVgoRq7tHa-19" value="User" style="shape=umlActor;verticalLabelPosition=bottom;verticalAlign=top;html=1;outlineConnect=0;fillColor=#ffe6cc;strokeColor=#d79b00;" parent="1" vertex="1">
          <mxGeometry x="430" y="170" width="30" height="60" as="geometry" />
        </mxCell>
        <mxCell id="Ns06nyAxxZCVgoRq7tHa-20" value="User" style="shape=umlActor;verticalLabelPosition=bottom;verticalAlign=top;html=1;outlineConnect=0;fillColor=#ffe6cc;strokeColor=#d79b00;" parent="1" vertex="1">
          <mxGeometry x="520" y="60" width="30" height="60" as="geometry" />
        </mxCell>
        <mxCell id="Ns06nyAxxZCVgoRq7tHa-21" value="User" style="shape=umlActor;verticalLabelPosition=bottom;verticalAlign=top;html=1;outlineConnect=0;fillColor=#ffe6cc;strokeColor=#d79b00;" parent="1" vertex="1">
          <mxGeometry x="620" y="170" width="30" height="60" as="geometry" />
        </mxCell>
        <mxCell id="Ns06nyAxxZCVgoRq7tHa-22" value="" style="endArrow=classic;startArrow=classic;html=1;rounded=0;" parent="1" source="Ns06nyAxxZCVgoRq7tHa-19" target="Ns06nyAxxZCVgoRq7tHa-20" edge="1">
          <mxGeometry width="50" height="50" relative="1" as="geometry">
            <mxPoint x="660" y="190" as="sourcePoint" />
            <mxPoint x="710" y="140" as="targetPoint" />
          </mxGeometry>
        </mxCell>
        <mxCell id="Ns06nyAxxZCVgoRq7tHa-23" value="" style="endArrow=classic;startArrow=classic;html=1;rounded=0;" parent="1" source="Ns06nyAxxZCVgoRq7tHa-21" target="Ns06nyAxxZCVgoRq7tHa-20" edge="1">
          <mxGeometry width="50" height="50" relative="1" as="geometry">
            <mxPoint x="470" y="192" as="sourcePoint" />
            <mxPoint x="530" y="118" as="targetPoint" />
          </mxGeometry>
        </mxCell>
        <mxCell id="Ns06nyAxxZCVgoRq7tHa-24" value="User" style="shape=umlActor;verticalLabelPosition=bottom;verticalAlign=top;html=1;outlineConnect=0;fillColor=#ffe6cc;strokeColor=#d79b00;" parent="1" vertex="1">
          <mxGeometry x="520" y="280" width="30" height="60" as="geometry" />
        </mxCell>
        <mxCell id="Ns06nyAxxZCVgoRq7tHa-25" value="" style="endArrow=classic;startArrow=classic;html=1;rounded=0;" parent="1" source="Ns06nyAxxZCVgoRq7tHa-19" target="Ns06nyAxxZCVgoRq7tHa-24" edge="1">
          <mxGeometry width="50" height="50" relative="1" as="geometry">
            <mxPoint x="470" y="192" as="sourcePoint" />
            <mxPoint x="530" y="118" as="targetPoint" />
          </mxGeometry>
        </mxCell>
        <mxCell id="Ns06nyAxxZCVgoRq7tHa-26" value="" style="endArrow=classic;startArrow=classic;html=1;rounded=0;" parent="1" source="Ns06nyAxxZCVgoRq7tHa-24" target="Ns06nyAxxZCVgoRq7tHa-21" edge="1">
          <mxGeometry width="50" height="50" relative="1" as="geometry">
            <mxPoint x="480" y="202" as="sourcePoint" />
            <mxPoint x="540" y="128" as="targetPoint" />
          </mxGeometry>
        </mxCell>
        <mxCell id="Ns06nyAxxZCVgoRq7tHa-27" value="" style="shape=mxgraph.signs.safety.store_right_up_1;html=1;pointerEvents=1;fillColor=#000000;strokeColor=none;verticalLabelPosition=bottom;verticalAlign=top;align=center;sketch=0;rotation=-181;" parent="1" vertex="1">
          <mxGeometry x="754.62" y="245" width="36" height="30" as="geometry" />
        </mxCell>
        <mxCell id="Ns06nyAxxZCVgoRq7tHa-28" value="Toxicity" style="shape=mxgraph.signs.safety.biohazard;html=1;pointerEvents=1;fillColor=#d5e8d4;strokeColor=#82b366;verticalLabelPosition=bottom;verticalAlign=top;align=center;sketch=0;" parent="1" vertex="1">
          <mxGeometry x="691.87" y="230" width="58" height="50" as="geometry" />
        </mxCell>
        <mxCell id="Ns06nyAxxZCVgoRq7tHa-29" value="" style="shape=mxgraph.signs.healthcare.eye;html=1;pointerEvents=1;fillColor=#dae8fc;strokeColor=#6c8ebf;verticalLabelPosition=bottom;verticalAlign=top;align=center;sketch=0;" parent="1" vertex="1">
          <mxGeometry x="515" y="165" width="40" height="20" as="geometry" />
        </mxCell>
        <mxCell id="Ns06nyAxxZCVgoRq7tHa-30" value="" style="endArrow=none;dashed=1;html=1;dashPattern=1 3;strokeWidth=2;rounded=0;" parent="1" edge="1">
          <mxGeometry width="50" height="50" relative="1" as="geometry">
            <mxPoint x="400" y="360" as="sourcePoint" />
            <mxPoint x="400" y="30" as="targetPoint" />
          </mxGeometry>
        </mxCell>
        <mxCell id="Ns06nyAxxZCVgoRq7tHa-31" value="&lt;b&gt;&lt;u&gt;&lt;font style=&quot;font-size: 17px;&quot;&gt;Online chat rooms / deliberative platforms&lt;/font&gt;&lt;/u&gt;&lt;/b&gt;" style="text;html=1;align=center;verticalAlign=middle;whiteSpace=wrap;rounded=0;" parent="1" vertex="1">
          <mxGeometry x="220" width="370" height="30" as="geometry" />
        </mxCell>
        <mxCell id="JPMlDny1NzIBYX_5E1XT-1" value="Rules enforcement" style="shape=mxgraph.signs.sports.amphiteater;html=1;pointerEvents=1;fillColor=#d5e8d4;strokeColor=#82b366;verticalLabelPosition=bottom;verticalAlign=top;align=center;sketch=0;" parent="1" vertex="1">
          <mxGeometry x="701.37" y="115" width="48.5" height="50" as="geometry" />
        </mxCell>
        <mxCell id="JPMlDny1NzIBYX_5E1XT-2" value="" style="shape=mxgraph.signs.safety.store_right_up_1;html=1;pointerEvents=1;fillColor=#000000;strokeColor=none;verticalLabelPosition=bottom;verticalAlign=top;align=center;sketch=0;rotation=0;" parent="1" vertex="1">
          <mxGeometry x="754.62" y="125" width="36" height="30" as="geometry" />
        </mxCell>
      </root>
    </mxGraphModel>
  </diagram>
</mxfile>
